<?xml version="1.0" standalone="no"?>
<!DOCTYPE svg PUBLIC "-//W3C//DTD SVG 20010904//EN"
 "http://www.w3.org/TR/2001/REC-SVG-20010904/DTD/svg10.dtd">
<svg version="1.0" xmlns="http://www.w3.org/2000/svg"
 width="360.000000pt" height="256.000000pt" viewBox="0 0 360.000000 256.000000"
 preserveAspectRatio="xMidYMid meet">

<g transform="translate(0.000000,256.000000) scale(0.100000,-0.100000)"
fill="#000000" stroke="none">
<path d="M791 1808 c-29 -227 -57 -427 -62 -445 -13 -40 -30 -54 -77 -64 -22
-4 20 -7 103 -6 77 0 128 2 112 4 -49 8 -50 24 -22 280 14 131 27 239 29 240
1 2 77 -122 167 -275 91 -152 169 -277 174 -277 4 0 16 23 26 52 58 171 177
314 315 380 71 34 87 38 159 38 90 0 148 -18 233 -72 81 -51 128 -105 242
-272 58 -85 132 -182 166 -216 154 -154 387 -206 573 -127 32 13 34 16 16 23
-11 4 -34 8 -51 8 -54 2 -158 39 -222 81 -91 58 -142 109 -267 265 -61 77
-147 173 -189 213 l-78 72 33 0 c76 0 173 78 197 159 25 81 9 184 -36 234 -30
34 -90 67 -149 82 -65 17 -473 22 -473 6 0 -38 9 -41 149 -41 148 0 201 -9
240 -37 48 -36 65 -70 69 -137 5 -78 -10 -127 -49 -160 -46 -39 -88 -42 -208
-16 -254 56 -420 8 -584 -170 -37 -40 -69 -71 -71 -69 -2 2 -93 151 -202 332
-109 180 -201 327 -204 327 -3 0 -30 -186 -59 -412z"/>
<path d="M1536 2020 c-65 -111 -127 -218 -139 -238 l-22 -37 29 19 c92 59 166
89 255 101 53 7 53 7 48 39 -3 17 -13 92 -23 166 -9 74 -20 139 -24 143 -4 5
-60 -82 -124 -193z"/>
<path d="M1685 1692 c-45 -5 -122 -31 -134 -46 -8 -9 -7 -53 5 -156 17 -161
13 -186 -33 -193 -15 -2 62 -4 172 -4 110 0 187 2 171 4 -43 7 -74 31 -85 66
-5 18 -18 98 -27 179 -10 81 -23 149 -29 151 -5 1 -23 1 -40 -1z"/>
<path d="M210 910 c0 -7 533 -10 1580 -10 1047 0 1580 3 1580 10 0 7 -533 10
-1580 10 -1047 0 -1580 -3 -1580 -10z"/>
<path d="M282 778 c-70 -19 -94 -113 -43 -170 25 -28 36 -33 75 -33 30 0 51 6
63 17 24 25 12 31 -25 12 -74 -36 -146 40 -108 114 22 42 72 56 118 31 22 -12
37 -4 22 11 -18 18 -68 27 -102 18z"/>
<path d="M680 680 c0 -60 4 -100 10 -100 6 0 10 18 10 40 0 37 2 40 29 40 22
0 35 -9 56 -40 15 -22 34 -40 43 -40 10 0 7 10 -13 36 l-27 35 26 24 c31 29
33 58 6 85 -16 16 -33 20 -80 20 l-60 0 0 -100z m124 64 c19 -18 19 -20 6 -45
-8 -15 -22 -19 -60 -19 l-50 0 0 40 0 40 44 0 c27 0 51 -6 60 -16z"/>
<path d="M1130 680 l0 -100 76 0 c47 0 73 4 69 10 -3 6 -33 10 -66 10 l-59 0
0 35 0 35 55 0 c30 0 55 5 55 10 0 6 -25 10 -55 10 l-55 0 0 35 0 35 60 0 c33
0 60 4 60 10 0 6 -30 10 -70 10 l-70 0 0 -100z"/>
<path d="M1594 684 c-49 -106 -48 -104 -34 -104 6 0 16 11 22 25 10 22 17 25
68 25 51 0 58 -3 68 -25 10 -21 32 -35 32 -21 0 18 -91 196 -100 196 -6 0 -31
-43 -56 -96z m79 23 c9 -23 17 -46 17 -50 0 -4 -20 -7 -44 -7 l-44 0 21 50
c11 28 23 50 26 50 4 0 14 -19 24 -43z"/>
<path d="M1990 770 c0 -5 16 -10 35 -10 l35 0 0 -90 c0 -53 4 -90 10 -90 6 0
10 37 10 90 l0 90 35 0 c19 0 35 5 35 10 0 6 -33 10 -80 10 -47 0 -80 -4 -80
-10z"/>
<path d="M2440 680 c0 -60 4 -100 10 -100 6 0 10 40 10 100 0 60 -4 100 -10
100 -6 0 -10 -40 -10 -100z"/>
<path d="M2750 771 c0 -19 83 -201 91 -201 5 0 13 10 18 23 5 12 25 59 45 105
24 56 31 82 22 82 -7 0 -28 -38 -47 -84 -19 -47 -37 -82 -40 -78 -4 4 -21 42
-39 85 -17 42 -36 77 -41 77 -5 0 -9 -4 -9 -9z"/>
<path d="M3220 680 l0 -100 75 0 c43 0 75 4 75 10 0 6 -28 10 -65 10 l-65 0 0
35 0 35 55 0 c30 0 55 5 55 10 0 6 -25 10 -55 10 l-55 0 0 35 0 35 65 0 c37 0
65 4 65 10 0 6 -32 10 -75 10 l-75 0 0 -100z"/>
<path d="M1090 390 c0 -49 1 -50 29 -50 16 0 37 7 45 16 34 34 8 84 -45 84
-28 0 -29 -1 -29 -50z m74 18 c15 -25 -3 -52 -38 -56 -24 -3 -26 -1 -26 38 0
39 2 41 26 38 15 -2 32 -11 38 -20z"/>
<path d="M1380 390 l0 -50 38 2 c36 1 36 1 5 5 -43 6 -47 40 -5 46 l27 4 -27
2 c-40 2 -36 29 5 34 31 4 31 4 -5 5 l-38 2 0 -50z"/>
<path d="M1647 433 c-15 -15 -5 -35 23 -44 43 -15 41 -44 -2 -35 -24 5 -29 3
-21 -5 16 -16 57 -7 61 13 2 11 -8 23 -29 33 -32 17 -30 29 6 38 16 4 15 5 -6
6 -14 0 -29 -2 -32 -6z"/>
<path d="M1913 390 c0 -30 2 -43 4 -27 2 15 2 39 0 55 -2 15 -4 2 -4 -28z"/>
<path d="M2124 415 c-15 -23 -15 -27 0 -51 22 -33 69 -31 74 4 3 16 -1 22 -15
21 -10 0 -13 -3 -5 -6 6 -2 12 -11 12 -19 0 -11 -8 -14 -27 -12 -25 3 -28 7
-28 38 0 33 2 35 32 35 17 0 29 3 26 7 -10 18 -53 7 -69 -17z"/>
<path d="M2402 388 l1 -53 6 45 6 45 31 -43 c17 -23 34 -39 37 -35 4 3 6 27 5
52 -1 44 -2 44 -5 9 -2 -21 -7 -38 -11 -38 -4 0 -18 16 -32 35 -14 19 -28 35
-32 35 -5 0 -7 -24 -6 -52z"/>
</g>
</svg>
